<svg version="1.1" id="Layer_1" xmlns="http://www.w3.org/2000/svg" xmlns:xlink="http://www.w3.org/1999/xlink" x="0px" y="0px"
	 width="100%" viewBox="0 0 2048 745" enable-background="new 0 0 2048 745" xml:space="preserve">
<path fill="#000000" opacity="1.000000" stroke="none" 
	d="
M1291.000000,746.000000 
	C860.666809,746.000000 430.833649,746.000000 1.000346,746.000000 
	C1.000231,497.666901 1.000231,249.333817 1.000115,1.000546 
	C683.666199,1.000364 1366.332397,1.000364 2048.999023,1.000182 
	C2048.999268,249.332764 2048.999268,497.665527 2048.999512,745.999146 
	C1796.500000,746.000000 1544.000000,746.000000 1291.000000,746.000000 
M1734.851318,476.497742 
	C1734.851318,454.335388 1734.936157,432.172363 1734.766724,410.011292 
	C1734.738892,406.377350 1735.861206,403.814819 1738.275879,401.203857 
	C1749.692505,388.859131 1760.917847,376.337646 1772.239868,363.905182 
	C1773.315430,362.724121 1774.589111,361.723389 1776.035156,360.396149 
	C1777.031494,361.744873 1777.739990,362.615356 1778.354004,363.547974 
	C1806.056152,405.628815 1833.805542,447.678772 1861.344604,489.866089 
	C1863.683594,493.449280 1866.206055,494.599670 1870.227783,494.576019 
	C1891.888794,494.448486 1913.550781,494.530304 1935.212524,494.512878 
	C1936.464722,494.511871 1937.716553,494.273346 1939.166016,494.125214 
	C1938.832031,493.199585 1938.754517,492.684784 1938.490723,492.296204 
	C1900.502563,436.298004 1862.494263,380.313446 1824.507812,324.314087 
	C1819.321289,316.668091 1819.558228,318.625610 1825.293091,311.963593 
	C1861.349243,270.078705 1897.482300,228.259781 1933.572754,186.404312 
	C1934.257324,185.610306 1934.732422,184.635635 1935.613037,183.266785 
	C1934.365723,183.127045 1933.757812,182.999573 1933.150024,182.999405 
	C1909.322144,182.992630 1885.493774,182.936646 1861.667358,183.121780 
	C1859.858887,183.135834 1857.533691,184.431885 1856.339478,185.871201 
	C1815.880981,234.627060 1771.601440,280.301788 1736.884277,333.697815 
	C1736.366211,334.494568 1735.376465,334.984558 1733.718384,336.348572 
	C1733.718384,333.600952 1733.707275,331.994232 1733.720093,330.387665 
	C1734.095703,283.410248 1734.415527,236.432159 1734.939575,189.456375 
	C1734.992920,184.669815 1734.073486,182.749054 1728.702393,182.859451 
	C1711.047119,183.222382 1693.379761,182.989410 1675.717041,183.009109 
	C1674.281860,183.010696 1672.846802,183.192383 1671.243896,183.301834 
	C1671.243896,287.103455 1671.243896,390.506958 1671.243896,493.984985 
	C1692.471069,493.984985 1713.490234,493.984985 1734.851318,493.984985 
	C1734.851318,488.129944 1734.851318,482.813202 1734.851318,476.497742 
M1161.163452,478.227814 
	C1145.140747,432.465729 1129.111816,386.705841 1113.097046,340.941010 
	C1095.052856,289.376709 1077.042603,237.800491 1058.871826,186.280838 
	C1058.379272,184.884186 1056.222168,183.143570 1054.829834,183.133316 
	C1029.001953,182.943069 1003.171875,182.941071 977.343933,183.126022 
	C975.911438,183.136276 973.670471,184.826050 973.188660,186.214096 
	C962.074707,218.230652 951.149475,250.312698 940.196106,282.384949 
	C922.530884,334.109619 904.865356,385.834137 887.211182,437.562561 
	C880.844788,456.216675 874.510620,474.881836 867.987427,494.054321 
	C870.161438,494.228577 871.931091,494.490631 873.701172,494.493744 
	C891.198364,494.524475 908.695679,494.512238 926.192932,494.512207 
	C938.724976,494.512177 938.444153,494.426758 942.162537,482.200867 
	C947.865234,463.450439 954.004272,444.832794 959.944153,426.154327 
	C960.706970,423.755554 961.730286,422.290588 964.801086,422.301971 
	C999.128540,422.429352 1033.456665,422.410309 1067.784546,422.344299 
	C1070.867676,422.338379 1072.509521,423.226807 1073.536865,426.398651 
	C1080.237427,447.087555 1087.239746,467.678619 1093.956665,488.362396 
	C1095.245239,492.330719 1096.451294,494.765533 1101.585083,494.666138 
	C1121.241333,494.285522 1140.909424,494.526215 1160.572998,494.490234 
	C1162.519165,494.486664 1164.464844,494.177032 1166.688721,493.985474 
	C1164.812622,488.671631 1163.101685,483.825409 1161.163452,478.227814 
M1299.361572,271.214325 
	C1319.452026,305.084351 1339.594238,338.923950 1359.533569,372.882690 
	C1361.111694,375.570221 1361.984375,379.080750 1361.999512,382.214539 
	C1362.169189,417.542694 1362.106934,452.872009 1362.106934,488.200989 
	C1362.106934,490.013031 1362.107056,491.825043 1362.107056,494.063904 
	C1383.503418,494.063904 1404.504517,494.063904 1425.627197,494.063904 
	C1425.627197,457.263153 1425.704346,420.944305 1425.538330,384.626587 
	C1425.515137,379.577026 1426.703979,375.259430 1429.224731,370.966858 
	C1463.801758,312.083801 1498.306274,253.158249 1532.807129,194.230576 
	C1534.842041,190.754822 1536.692749,187.171219 1538.981323,182.995102 
	C1514.498779,182.995102 1491.022217,182.924271 1467.548706,183.156204 
	C1466.002441,183.171494 1463.899292,185.187180 1463.034546,186.798096 
	C1453.918823,203.778564 1444.825806,220.775940 1436.073120,237.945404 
	C1423.557983,262.495300 1411.309204,287.181213 1399.012329,311.841797 
	C1397.507935,314.858398 1396.407349,318.076355 1395.119629,321.201050 
	C1394.657593,321.216309 1394.195435,321.231537 1393.733398,321.246796 
	C1391.683472,316.466858 1389.963745,311.511536 1387.532104,306.934418 
	C1366.259644,266.892639 1344.818481,226.940414 1323.582031,186.879608 
	C1322.008423,183.911072 1320.301636,182.912079 1317.048462,182.930313 
	C1295.218628,183.052734 1273.387573,182.978073 1251.557007,182.997650 
	C1250.356201,182.998734 1249.155640,183.270691 1247.171997,183.511688 
	C1264.693970,212.970139 1281.831787,241.782761 1299.361572,271.214325 
M304.500641,382.012146 
	C293.813965,378.323639 283.106903,374.692017 272.463440,370.882812 
	C270.938690,370.337128 269.720917,368.933685 268.361084,367.927185 
	C269.751740,366.952576 271.125732,365.952606 272.543671,365.019409 
	C272.947723,364.753510 273.480377,364.684235 273.952545,364.520508 
	C317.619202,349.376587 361.272430,334.193787 404.978180,319.163635 
	C408.335876,318.008972 409.690918,316.601135 409.659119,312.863159 
	C409.469177,290.538666 409.571503,268.211761 409.550262,245.885681 
	C409.548950,244.491745 409.331512,243.098007 409.168945,241.159790 
	C406.322906,242.183533 404.134796,242.897217 402.002075,243.749512 
	C386.873932,249.795135 371.758057,255.871475 356.636566,261.933685 
	C300.302185,284.518219 243.979843,307.133087 187.600586,329.605042 
	C184.222275,330.951599 183.133682,332.711334 183.157852,336.233002 
	C183.299622,356.891998 183.381058,377.554474 183.111420,398.210907 
	C183.049530,402.952118 184.523132,405.195465 188.958359,406.955078 
	C255.571350,433.382843 322.108521,460.001740 388.670471,486.558289 
	C395.366058,489.229675 402.106689,491.788147 408.941864,494.443909 
	C409.312866,493.201752 409.570892,492.740570 409.571136,492.279266 
	C409.583893,468.787628 409.528809,445.295776 409.624573,421.804565 
	C409.636871,418.787598 408.056793,417.837860 405.654999,417.009460 
	C372.174866,405.462219 338.711761,393.865479 304.500641,382.012146 
M550.790955,212.499893 
	C550.790955,306.286102 550.790955,400.072327 550.790955,493.948730 
	C616.974243,493.948730 682.793213,493.948730 748.721191,493.948730 
	C748.721191,478.209259 748.581604,463.056854 748.804565,447.909760 
	C748.873291,443.244080 747.631409,441.572571 742.627441,441.597260 
	C701.965271,441.798065 661.301758,441.710419 620.638611,441.709839 
	C614.263000,441.709778 614.285889,441.708008 614.286316,435.097656 
	C614.291687,352.938171 614.250122,270.778595 614.392761,188.619339 
	C614.400940,183.897598 612.931274,182.826385 608.460205,182.896530 
	C592.132324,183.152618 575.797974,182.997818 559.466064,182.997833 
	C556.690613,182.997849 553.915161,182.997833 550.790955,182.997833 
	C550.790955,192.898972 550.790955,202.199417 550.790955,212.499893 
z"/>
<path fill="#FDFDFD" opacity="1.000000" stroke="none" 
	d="
M1734.851318,476.997101 
	C1734.851318,482.813202 1734.851318,488.129944 1734.851318,493.984985 
	C1713.490234,493.984985 1692.471069,493.984985 1671.243896,493.984985 
	C1671.243896,390.506958 1671.243896,287.103455 1671.243896,183.301834 
	C1672.846802,183.192383 1674.281860,183.010696 1675.717041,183.009109 
	C1693.379761,182.989410 1711.047119,183.222382 1728.702393,182.859451 
	C1734.073486,182.749054 1734.992920,184.669815 1734.939575,189.456375 
	C1734.415527,236.432159 1734.095703,283.410248 1733.720093,330.387665 
	C1733.707275,331.994232 1733.718384,333.600952 1733.718384,336.348572 
	C1735.376465,334.984558 1736.366211,334.494568 1736.884277,333.697815 
	C1771.601440,280.301788 1815.880981,234.627060 1856.339478,185.871201 
	C1857.533691,184.431885 1859.858887,183.135834 1861.667358,183.121780 
	C1885.493774,182.936646 1909.322144,182.992630 1933.150024,182.999405 
	C1933.757812,182.999573 1934.365723,183.127045 1935.613037,183.266785 
	C1934.732422,184.635635 1934.257324,185.610306 1933.572754,186.404312 
	C1897.482300,228.259781 1861.349243,270.078705 1825.293091,311.963593 
	C1819.558228,318.625610 1819.321289,316.668091 1824.507812,324.314087 
	C1862.494263,380.313446 1900.502563,436.298004 1938.490723,492.296204 
	C1938.754517,492.684784 1938.832031,493.199585 1939.166016,494.125214 
	C1937.716553,494.273346 1936.464722,494.511871 1935.212524,494.512878 
	C1913.550781,494.530304 1891.888794,494.448486 1870.227783,494.576019 
	C1866.206055,494.599670 1863.683594,493.449280 1861.344604,489.866089 
	C1833.805542,447.678772 1806.056152,405.628815 1778.354004,363.547974 
	C1777.739990,362.615356 1777.031494,361.744873 1776.035156,360.396149 
	C1774.589111,361.723389 1773.315430,362.724121 1772.239868,363.905182 
	C1760.917847,376.337646 1749.692505,388.859131 1738.275879,401.203857 
	C1735.861206,403.814819 1734.738892,406.377350 1734.766724,410.011292 
	C1734.936157,432.172363 1734.851318,454.335388 1734.851318,476.997101 
z"/>
<path fill="#FDFDFD" opacity="1.000000" stroke="none" 
	d="
M1161.277100,478.603516 
	C1163.101685,483.825409 1164.812622,488.671631 1166.688721,493.985474 
	C1164.464844,494.177032 1162.519165,494.486664 1160.572998,494.490234 
	C1140.909424,494.526215 1121.241333,494.285522 1101.585083,494.666138 
	C1096.451294,494.765533 1095.245239,492.330719 1093.956665,488.362396 
	C1087.239746,467.678619 1080.237427,447.087555 1073.536865,426.398651 
	C1072.509521,423.226807 1070.867676,422.338379 1067.784546,422.344299 
	C1033.456665,422.410309 999.128540,422.429352 964.801086,422.301971 
	C961.730286,422.290588 960.706970,423.755554 959.944153,426.154327 
	C954.004272,444.832794 947.865234,463.450439 942.162537,482.200867 
	C938.444153,494.426758 938.724976,494.512177 926.192932,494.512207 
	C908.695679,494.512238 891.198364,494.524475 873.701172,494.493744 
	C871.931091,494.490631 870.161438,494.228577 867.987427,494.054321 
	C874.510620,474.881836 880.844788,456.216675 887.211182,437.562561 
	C904.865356,385.834137 922.530884,334.109619 940.196106,282.384949 
	C951.149475,250.312698 962.074707,218.230652 973.188660,186.214096 
	C973.670471,184.826050 975.911438,183.136276 977.343933,183.126022 
	C1003.171875,182.941071 1029.001953,182.943069 1054.829834,183.133316 
	C1056.222168,183.143570 1058.379272,184.884186 1058.871826,186.280838 
	C1077.042603,237.800491 1095.052856,289.376709 1113.097046,340.941010 
	C1129.111816,386.705841 1145.140747,432.465729 1161.277100,478.603516 
M1025.061157,270.393433 
	C1022.127991,259.173615 1019.194763,247.953796 1016.261597,236.733978 
	C1015.908020,236.802460 1015.554504,236.870941 1015.200928,236.939407 
	C1003.028320,281.858398 990.855774,326.777374 978.624390,371.913239 
	C1003.766479,371.913239 1029.249023,371.913239 1055.122925,371.913239 
	C1054.793701,370.617401 1054.637573,369.836365 1054.397583,369.082001 
	C1050.268799,356.105560 1045.905273,343.198761 1042.045532,330.142975 
	C1036.252808,310.548553 1030.811646,290.850189 1025.061157,270.393433 
z"/>
<path fill="#FDFDFD" opacity="1.000000" stroke="none" 
	d="
M1299.165649,270.904846 
	C1281.831787,241.782761 1264.693970,212.970139 1247.171997,183.511688 
	C1249.155640,183.270691 1250.356201,182.998734 1251.557007,182.997650 
	C1273.387573,182.978073 1295.218628,183.052734 1317.048462,182.930313 
	C1320.301636,182.912079 1322.008423,183.911072 1323.582031,186.879608 
	C1344.818481,226.940414 1366.259644,266.892639 1387.532104,306.934418 
	C1389.963745,311.511536 1391.683472,316.466858 1393.733398,321.246796 
	C1394.195435,321.231537 1394.657593,321.216309 1395.119629,321.201050 
	C1396.407349,318.076355 1397.507935,314.858398 1399.012329,311.841797 
	C1411.309204,287.181213 1423.557983,262.495300 1436.073120,237.945404 
	C1444.825806,220.775940 1453.918823,203.778564 1463.034546,186.798096 
	C1463.899292,185.187180 1466.002441,183.171494 1467.548706,183.156204 
	C1491.022217,182.924271 1514.498779,182.995102 1538.981323,182.995102 
	C1536.692749,187.171219 1534.842041,190.754822 1532.807129,194.230576 
	C1498.306274,253.158249 1463.801758,312.083801 1429.224731,370.966858 
	C1426.703979,375.259430 1425.515137,379.577026 1425.538330,384.626587 
	C1425.704346,420.944305 1425.627197,457.263153 1425.627197,494.063904 
	C1404.504517,494.063904 1383.503418,494.063904 1362.107056,494.063904 
	C1362.107056,491.825043 1362.106934,490.013031 1362.106934,488.200989 
	C1362.106934,452.872009 1362.169189,417.542694 1361.999512,382.214539 
	C1361.984375,379.080750 1361.111694,375.570221 1359.533569,372.882690 
	C1339.594238,338.923950 1319.452026,305.084351 1299.165649,270.904846 
z"/>
<path fill="#00E49F" opacity="1.000000" stroke="none" 
	d="
M304.872589,382.146484 
	C338.711761,393.865479 372.174866,405.462219 405.654999,417.009460 
	C408.056793,417.837860 409.636871,418.787598 409.624573,421.804565 
	C409.528809,445.295776 409.583893,468.787628 409.571136,492.279266 
	C409.570892,492.740570 409.312866,493.201752 408.941864,494.443909 
	C402.106689,491.788147 395.366058,489.229675 388.670471,486.558289 
	C322.108521,460.001740 255.571350,433.382843 188.958359,406.955078 
	C184.523132,405.195465 183.049530,402.952118 183.111420,398.210907 
	C183.381058,377.554474 183.299622,356.891998 183.157852,336.233002 
	C183.133682,332.711334 184.222275,330.951599 187.600586,329.605042 
	C243.979843,307.133087 300.302185,284.518219 356.636566,261.933685 
	C371.758057,255.871475 386.873932,249.795135 402.002075,243.749512 
	C404.134796,242.897217 406.322906,242.183533 409.168945,241.159790 
	C409.331512,243.098007 409.548950,244.491745 409.550262,245.885681 
	C409.571503,268.211761 409.469177,290.538666 409.659119,312.863159 
	C409.690918,316.601135 408.335876,318.008972 404.978180,319.163635 
	C361.272430,334.193787 317.619202,349.376587 273.952545,364.520508 
	C273.480377,364.684235 272.947723,364.753510 272.543671,365.019409 
	C271.125732,365.952606 269.751740,366.952576 268.361084,367.927185 
	C269.720917,368.933685 270.938690,370.337128 272.463440,370.882812 
	C283.106903,374.692017 293.813965,378.323639 304.872589,382.146484 
z"/>
<path fill="#FEFEFE" opacity="1.000000" stroke="none" 
	d="
M550.790955,211.999878 
	C550.790955,202.199417 550.790955,192.898972 550.790955,182.997833 
	C553.915161,182.997833 556.690613,182.997849 559.466064,182.997833 
	C575.797974,182.997818 592.132324,183.152618 608.460205,182.896530 
	C612.931274,182.826385 614.400940,183.897598 614.392761,188.619339 
	C614.250122,270.778595 614.291687,352.938171 614.286316,435.097656 
	C614.285889,441.708008 614.263000,441.709778 620.638611,441.709839 
	C661.301758,441.710419 701.965271,441.798065 742.627441,441.597260 
	C747.631409,441.572571 748.873291,443.244080 748.804565,447.909760 
	C748.581604,463.056854 748.721191,478.209259 748.721191,493.948730 
	C682.793213,493.948730 616.974243,493.948730 550.790955,493.948730 
	C550.790955,400.072327 550.790955,306.286102 550.790955,211.999878 
z"/>
<path fill="#020202" opacity="1.000000" stroke="none" 
	d="
M1025.141113,270.794739 
	C1030.811646,290.850189 1036.252808,310.548553 1042.045532,330.142975 
	C1045.905273,343.198761 1050.268799,356.105560 1054.397583,369.082001 
	C1054.637573,369.836365 1054.793701,370.617401 1055.122925,371.913239 
	C1029.249023,371.913239 1003.766479,371.913239 978.624390,371.913239 
	C990.855774,326.777374 1003.028320,281.858398 1015.200928,236.939407 
	C1015.554504,236.870941 1015.908020,236.802460 1016.261597,236.733978 
	C1019.194763,247.953796 1022.127991,259.173615 1025.141113,270.794739 
z"/>
</svg>